<svg xmlns="http://www.w3.org/2000/svg" width="368" height="160" fill="#1a2430"><path d="M165.327 9.565v9.521h5.194l-.087-9.435-.13-9.392-2.466-.13-2.511-.13v9.565zM197.571.563c-.13.346-.174 4.674-.13 9.651l.13 9.089h4.76V.26l-2.294-.13c-1.558-.087-2.337.043-2.466.433zm-22.722 12.421c0 6.405-.043 6.925-.996 8.31-1.298 1.947-3.592 2.727-7.141 2.38-1.471-.13-3.116-.519-3.592-.866-2.077-1.428-2.337-2.294-2.51-9.045l-.433-6.362c-.13 0-1.428.606-2.813 1.298a23.21 23.21 0 0 0-12.335 16.922c-.649 3.809-.649 45.27 0 48.689 1.558 8.439 8.57 15.927 17.052 18.134 3.766.952 39.947.952 43.713 0 7.4-1.948 13.243-7.314 16.186-14.845l1.125-2.9.13-22.895c.13-24.063-.043-27.093-1.731-31.161-1.298-3.03-4.328-7.271-6.535-9.089-1.688-1.385-6.535-4.155-7.314-4.155-.13 0-.347 2.856-.433 6.362-.13 5.843-.217 6.535-1.125 7.79-1.256 1.731-3.636 2.467-7.271 2.164-5.151-.389-5.8-1.558-5.8-10.863v-6.75h-18.177v6.881zm30.079 18.524c2.337 1.212 5.15 4.328 5.886 6.449.476 1.342.606 5.237.606 18.134 0 15.84-.043 16.533-.909 18.394-1.082 2.294-3.549 4.804-5.756 5.929-1.428.736-3.073.779-20.817.779s-19.39-.043-20.818-.779c-2.207-1.125-4.674-3.635-5.756-5.929-.866-1.861-.909-2.727-1.039-17.658-.13-18.134 0-19.129 3.03-22.462 1.904-2.034 3.549-3.073 5.756-3.636.736-.173 9.565-.303 19.692-.26 17.961.087 18.437.13 20.125 1.039zm-15.451 19.908-8.569 8.569-4.241-4.241-4.242-4.198-1.471 1.515-1.472 1.515 5.713 5.756 5.713 5.713 10.171-10.171 10.17-10.127-1.385-1.428c-.779-.779-1.471-1.428-1.601-1.428-.173 0-4.112 3.852-8.786 8.526zm55.052 36.917v3.895h123.346v-7.79H244.529v3.895zM0 89.199v3.895h123.346v-7.79H0v3.895zm93.527 24.886c-4.155 1.168-6.449 3.072-8.483 7.097-1.515 3.03-2.077 6.752-1.861 12.032.389 7.747 3.03 12.551 8.266 14.888 3.376 1.515 9.089 1.428 12.551-.13l2.467-1.168v-6.968h-3.462v2.597c0 2.423-.087 2.64-1.125 3.029-1.472.563-5.107.563-7.141-.086-2.553-.736-4.847-2.943-6.232-6.06-1.169-2.51-1.255-3.159-1.298-7.703 0-5.843.692-8.44 3.116-11.253 2.077-2.38 4.415-3.462 7.704-3.462 4.414 0 4.544.086 4.544 3.289v2.77h3.463v-7.704l-1.775-.692c-2.597-1.039-7.877-1.255-10.733-.476zm51.892 1.514v1.732h4.284l.13 13.936c.13 12.81.217 14.109.952 15.32 1.948 3.246 6.666 3.982 11.21 1.775 1.342-.693 2.467-1.385 2.467-1.515 0-.173-.39-.779-.823-1.342l-.779-.995-1.774.909c-2.554 1.298-5.28 1.212-6.622-.216l-1.038-1.126-.13-15.104-.13-15.105h-7.747v1.731zm100.841 0v1.732h4.328V124.688l-1.818-.303c-3.332-.606-8.266-.303-10.387.606-4.415 1.991-6.622 5.973-6.578 12.032.043 6.102 1.514 9.218 5.15 11.036 4.241 2.077 9.781 1.255 12.767-1.948.952-1.038 1.082-1.038 1.342-.346.173.433.346 1.299.346 1.948.043 1.212.043 1.212 3.289 1.212h3.246v-1.732c0-1.731 0-1.731-1.688-1.731-1.514 0-1.688-.13-1.947-1.341-.13-.736-.26-7.877-.26-15.797v-14.456h-7.79v1.731zm3.376 12.508c.909.476.952.736.952 6.232 0 5.107-.13 5.973-.952 7.661-1.385 2.683-3.333 3.895-6.276 3.895-4.544 0-6.795-1.991-7.617-6.708-.346-2.121-.346-3.419.043-5.324.649-3.072 1.558-4.371 4.025-5.626 1.645-.866 2.381-.995 5.367-.866 1.904.13 3.895.433 4.458.736zm-68.858-4.111c-4.89 1.341-7.877 5.193-8.353 10.646-.952 10.301 6.016 16.403 16.057 14.066 1.644-.346 3.852-1.168 4.847-1.774l1.861-1.082-.692-1.299c-.347-.735-.779-1.255-.952-1.168-5.93 3.073-11.253 3.332-14.629.692-1.385-1.125-2.727-3.981-2.77-5.886v-1.385h19.043v-2.51c0-4.804-1.558-7.92-4.804-9.521-2.51-1.212-6.795-1.602-9.608-.779zm7.401 3.462c1.731.909 2.986 2.424 3.462 4.241l.433 1.645h-15.927l.26-1.212c.476-1.904 1.904-3.592 3.808-4.458 2.121-.952 6.319-1.082 7.964-.216zm24.28-3.419a10.27 10.27 0 0 0-3.722 2.38c-.953.952-1.861 1.602-2.035 1.428-.129-.129-.259-1.125-.259-2.163v-1.861h-6.492v1.731c0 1.731 0 1.731 1.688 1.731h1.644l.26 2.9c.173 1.644.303 6.491.303 10.819v7.921h3.462v-8.137c0-9.089.173-9.651 3.29-12.032 1.428-1.082 1.99-1.255 4.544-1.255 2.51 0 3.073.173 4.025 1.039 1.688 1.601 1.991 3.419 1.991 12.248v8.137h3.462v-9.435c-.043-9.781-.303-11.686-2.034-13.59-1.948-2.164-6.535-3.03-10.127-1.861zm-91.709.216c-1.082.173-2.77.693-3.809 1.082-1.558.65-1.818.909-1.558 1.688.476 1.602.909 1.731 3.549.952 1.385-.389 3.722-.692 5.237-.692 2.423 0 2.856.13 3.981 1.255 1.082 1.082 1.255 1.601 1.255 3.679v2.38l-4.76-.043c-4.415 0-4.977.086-7.228 1.212-2.943 1.514-4.025 3.246-4.025 6.492 0 4.284 2.943 6.881 7.79 6.881 2.294 0 3.203-.216 4.848-1.212 1.125-.649 2.293-1.601 2.553-2.077.606-1.169 1.169-.606 1.342 1.341l.13 1.515 3.159.13 3.116.13V145.462h-3.462v-7.92c0-7.357-.087-8.05-.952-9.824-.563-1.082-1.602-2.294-2.424-2.727-1.645-.952-5.799-1.298-8.742-.736zm7.963 13.677c.952.346.909 3.332 0 4.76-1.169 1.732-4.068 3.203-6.362 3.203-2.857 0-4.155-.606-4.847-2.337-1.515-3.592 1.298-5.843 7.227-5.886 1.818 0 3.592.13 3.982.26zm137.585-1.558 5.237 12.551h1.645c1.99 0 2.034.346.562 3.289-1.601 3.202-3.289 3.765-7.401 2.553-.779-.259-1.038-.043-1.471 1.299-.606 1.861-.433 2.077 2.337 2.856 4.934 1.342 8.872-1.904 10.863-8.915.779-2.727 6.882-22.939 7.574-25.016.39-1.169.346-1.169-1.471-1.169h-1.861l-3.03 10.474c-3.03 10.474-3.03 10.517-4.241 10.517-1.169 0-1.342-.346-5.54-10.517l-4.328-10.474h-4.112l5.237 12.552z"/></svg>